<svg width="329" height="47" viewBox="0 0 329 47" fill="none" xmlns="http://www.w3.org/2000/svg">
<path fill-rule="evenodd" clip-rule="evenodd" d="M18.3095 5.19043H48.6149C57.3322 5.19043 64.3989 12.2572 64.3989 20.9745V23.4999H59.348V20.9745C59.348 15.0467 54.5426 10.2413 48.6149 10.2413H18.3095V5.19043Z" fill="white"/>
<path fill-rule="evenodd" clip-rule="evenodd" d="M46.0894 39.7061L15.784 39.7061C7.06676 39.7061 3.20512e-06 32.6393 4.65895e-06 23.922L5.08014e-06 21.3966L5.0509 21.3966L5.0509 23.922C5.0509 29.8498 9.85629 34.6552 15.784 34.6552L46.0894 34.6552L46.0894 39.7061Z" fill="white"/>
<path d="M1.50068 5.19035L41.0451 26.4414L55.3507 21.716L22.8911 5.19035H1.50068Z" fill="white"/>
<path d="M62.8889 39.6761L23.3445 18.4854L9.03894 23.1973L41.4985 39.6761H62.8889Z" fill="white"/>
<path fill-rule="evenodd" clip-rule="evenodd" d="M23.3604 23.5L2.52547 23.5C1.1307 23.5 2.02157e-05 22.3693 2.04483e-05 20.9746L2.30807e-05 5.1905L5.05092 5.19051L5.05092 18.4491L23.3604 18.4491L23.3604 23.5Z" fill="white"/>
<path fill-rule="evenodd" clip-rule="evenodd" d="M41.0385 21.3965L61.8735 21.3965C63.2682 21.3965 64.3989 22.5272 64.3989 23.9219L64.3989 39.706L59.348 39.706L59.348 26.4474L41.0385 26.4474L41.0385 21.3965Z" fill="white"/>
<rect x="27.9857" y="34.7324" width="35.4561" height="4.94344" fill="white"/>
<rect x="4.09723" y="5.19043" width="35.4561" height="4.94344" fill="white"/>
<path d="M105.345 10.2002C107.798 10.2002 109.958 10.5869 111.825 11.3602C113.718 12.1069 115.358 13.2135 116.745 14.6802L113.425 19.1202C112.278 17.9202 111.038 17.0269 109.705 16.4402C108.398 15.8269 106.905 15.5202 105.225 15.5202C104.238 15.5202 103.438 15.6269 102.825 15.8402C102.211 16.0535 101.771 16.3469 101.505 16.7202C101.238 17.0935 101.105 17.5202 101.105 18.0002C101.105 18.5602 101.358 19.0402 101.865 19.4402C102.398 19.8135 103.251 20.1335 104.425 20.4002L108.865 21.4002C111.505 22.0135 113.438 22.9069 114.665 24.0802C115.891 25.2535 116.505 26.8135 116.505 28.7602C116.505 30.6269 116.025 32.2135 115.065 33.5202C114.105 34.8002 112.785 35.7735 111.105 36.4402C109.425 37.0802 107.505 37.4002 105.345 37.4002C103.585 37.4002 101.905 37.2135 100.305 36.8402C98.7045 36.4402 97.2645 35.8802 95.9845 35.1602C94.7045 34.4402 93.6245 33.6135 92.7445 32.6802L96.0645 28.0802C96.7312 28.8535 97.5445 29.5469 98.5045 30.1602C99.4912 30.7469 100.558 31.2135 101.705 31.5602C102.878 31.9069 104.065 32.0802 105.265 32.0802C106.198 32.0802 106.971 31.9869 107.585 31.8002C108.225 31.6135 108.691 31.3335 108.985 30.9602C109.278 30.5869 109.425 30.1469 109.425 29.6402C109.425 29.0802 109.225 28.6135 108.825 28.2402C108.425 27.8402 107.665 27.5069 106.545 27.2402L101.665 26.1602C100.171 25.8135 98.8378 25.3602 97.6645 24.8002C96.5178 24.2135 95.6112 23.4402 94.9445 22.4802C94.2778 21.4935 93.9445 20.2669 93.9445 18.8002C93.9445 17.1469 94.3978 15.6802 95.3045 14.4002C96.2112 13.0935 97.5178 12.0669 99.2245 11.3202C100.931 10.5735 102.971 10.2002 105.345 10.2002Z" fill="white"/>
<path d="M144.646 10.6002V37.0002H137.766V10.6002H144.646ZM127.686 10.6002V37.0002H120.806V10.6002H127.686ZM141.446 21.0402V26.3602H124.166V21.0402H141.446Z" fill="white"/>
<path d="M174.493 37.0002H167.413L165.573 31.0402H156.533L154.653 37.0002H147.733L157.013 10.6002H165.253L174.493 37.0002ZM157.813 26.3602H164.293L161.053 15.6802L157.813 26.3602Z" fill="white"/>
<path d="M189.684 10.6002C191.844 10.6002 193.684 10.9469 195.204 11.6402C196.724 12.3335 197.884 13.3335 198.684 14.6402C199.484 15.9469 199.884 17.5335 199.884 19.4002C199.884 21.2669 199.484 22.8535 198.684 24.1602C197.884 25.4669 196.724 26.4669 195.204 27.1602C193.684 27.8535 191.844 28.2002 189.684 28.2002H184.444V37.0002H177.564V10.6002H189.684ZM188.604 23.0402C190.044 23.0402 191.124 22.7469 191.844 22.1602C192.59 21.5469 192.964 20.6269 192.964 19.4002C192.964 18.1735 192.59 17.2669 191.844 16.6802C191.124 16.0669 190.044 15.7602 188.604 15.7602H184.444V23.0402H188.604Z" fill="white"/>
<path d="M204.282 37.0002V10.6002H224.842V15.9202H211.162V21.2802H222.042V26.2802H211.162V31.6802H225.362V37.0002H204.282Z" fill="white"/>
<path d="M236.397 31.6802H249.637V37.0002H229.517V10.6002H236.397V31.6802Z" fill="white"/>
<path d="M253.579 37.0002V10.6002H274.139V15.9202H260.459V21.2802H271.339V26.2802H260.459V31.6802H274.659V37.0002H253.579Z" fill="white"/>
<path d="M289.134 10.2002C291.587 10.2002 293.747 10.5869 295.614 11.3602C297.507 12.1069 299.147 13.2135 300.534 14.6802L297.214 19.1202C296.067 17.9202 294.827 17.0269 293.494 16.4402C292.187 15.8269 290.694 15.5202 289.014 15.5202C288.027 15.5202 287.227 15.6269 286.614 15.8402C286 16.0535 285.56 16.3469 285.294 16.7202C285.027 17.0935 284.894 17.5202 284.894 18.0002C284.894 18.5602 285.147 19.0402 285.654 19.4402C286.187 19.8135 287.04 20.1335 288.214 20.4002L292.654 21.4002C295.294 22.0135 297.227 22.9069 298.454 24.0802C299.68 25.2535 300.294 26.8135 300.294 28.7602C300.294 30.6269 299.814 32.2135 298.854 33.5202C297.894 34.8002 296.574 35.7735 294.894 36.4402C293.214 37.0802 291.294 37.4002 289.134 37.4002C287.374 37.4002 285.694 37.2135 284.094 36.8402C282.494 36.4402 281.054 35.8802 279.774 35.1602C278.494 34.4402 277.414 33.6135 276.534 32.6802L279.854 28.0802C280.52 28.8535 281.334 29.5469 282.294 30.1602C283.28 30.7469 284.347 31.2135 285.494 31.5602C286.667 31.9069 287.854 32.0802 289.054 32.0802C289.987 32.0802 290.76 31.9869 291.374 31.8002C292.014 31.6135 292.48 31.3335 292.774 30.9602C293.067 30.5869 293.214 30.1469 293.214 29.6402C293.214 29.0802 293.014 28.6135 292.614 28.2402C292.214 27.8402 291.454 27.5069 290.334 27.2402L285.454 26.1602C283.96 25.8135 282.627 25.3602 281.454 24.8002C280.307 24.2135 279.4 23.4402 278.734 22.4802C278.067 21.4935 277.734 20.2669 277.734 18.8002C277.734 17.1469 278.187 15.6802 279.094 14.4002C280 13.0935 281.307 12.0669 283.014 11.3202C284.72 10.5735 286.76 10.2002 289.134 10.2002Z" fill="white"/>
<path d="M314.915 10.2002C317.368 10.2002 319.528 10.5869 321.395 11.3602C323.288 12.1069 324.928 13.2135 326.315 14.6802L322.995 19.1202C321.848 17.9202 320.608 17.0269 319.275 16.4402C317.968 15.8269 316.475 15.5202 314.795 15.5202C313.808 15.5202 313.008 15.6269 312.395 15.8402C311.781 16.0535 311.341 16.3469 311.075 16.7202C310.808 17.0935 310.675 17.5202 310.675 18.0002C310.675 18.5602 310.928 19.0402 311.435 19.4402C311.968 19.8135 312.821 20.1335 313.995 20.4002L318.435 21.4002C321.075 22.0135 323.008 22.9069 324.235 24.0802C325.461 25.2535 326.075 26.8135 326.075 28.7602C326.075 30.6269 325.595 32.2135 324.635 33.5202C323.675 34.8002 322.355 35.7735 320.675 36.4402C318.995 37.0802 317.075 37.4002 314.915 37.4002C313.155 37.4002 311.475 37.2135 309.875 36.8402C308.275 36.4402 306.835 35.8802 305.555 35.1602C304.275 34.4402 303.195 33.6135 302.315 32.6802L305.635 28.0802C306.301 28.8535 307.115 29.5469 308.075 30.1602C309.061 30.7469 310.128 31.2135 311.275 31.5602C312.448 31.9069 313.635 32.0802 314.835 32.0802C315.768 32.0802 316.541 31.9869 317.155 31.8002C317.795 31.6135 318.261 31.3335 318.555 30.9602C318.848 30.5869 318.995 30.1469 318.995 29.6402C318.995 29.0802 318.795 28.6135 318.395 28.2402C317.995 27.8402 317.235 27.5069 316.115 27.2402L311.235 26.1602C309.741 25.8135 308.408 25.3602 307.235 24.8002C306.088 24.2135 305.181 23.4402 304.515 22.4802C303.848 21.4935 303.515 20.2669 303.515 18.8002C303.515 17.1469 303.968 15.6802 304.875 14.4002C305.781 13.0935 307.088 12.0669 308.795 11.3202C310.501 10.5735 312.541 10.2002 314.915 10.2002Z" fill="white"/>
</svg>
